# xmcd
#
# Track frame offsets:
#	150
#	24582
#	44697
#	61075
#	76745
#	90982
#	105731
#	125123
#	143638
#	161758
#
# Disc length: 2393 seconds
#
# Revision: 1
# Processed by: cddbd v1.5.2PL0 Copyright (c) Steve Scherf et al.
# Submitted via: audiograbber 1.83.01
#
DISCID=7c09570a
DTITLE=Viktor Vershinin (VIKCHA) - Skvoznyaki
DYEAR=2006
DGENRE=
TTITLE0=Skvoznyaki
TTITLE1=Vilami po vode
TTITLE2=Vse budet tak, kak vy skajete
TTITLE3=Bogozastupnik
TTITLE4=Mir glazami vlublennogo
TTITLE5=Motau klubok
TTITLE6=Na ishode ogolteloi zimy
TTITLE7=Gdet-to mejdu
TTITLE8=Uchitel' gruppy prodlennogo dnya
TTITLE9=Vse esche shut
EXTD=
EXTT0=
EXTT1=
EXTT2=
EXTT3=
EXTT4=
EXTT5=
EXTT6=
EXTT7=
EXTT8=
EXTT9=
PLAYORDER=
